<?xml version="1.0" encoding="UTF-8"?>
<svg id="Layer_1" data-name="Layer 1" xmlns="http://www.w3.org/2000/svg" viewBox="0 0 616.56 207.85">
  <defs>
    <style>
      .cls-1 {
        stroke-width: 0px;
      }
    </style>
  </defs>
  <g>
    <path class="cls-1" d="M200.65,135.04v-48.85h-20.28v-9.8h52.29v9.8h-20.45v48.85h-11.56Z"/>
    <path class="cls-1" d="M248.42,136.3c-4.13,0-7.77-.88-10.89-2.64-3.13-1.76-5.56-4.32-7.29-7.67-1.73-3.35-2.6-7.32-2.6-11.9,0-4.3.89-8.13,2.68-11.48,1.79-3.35,4.24-5.96,7.37-7.83,3.13-1.87,6.65-2.81,10.56-2.81,4.47,0,8.25,1.09,11.35,3.27,3.1,2.18,5.38,5.15,6.83,8.92,1.45,3.77,1.98,7.98,1.59,12.61h-29.5c.11,2.63.61,4.76,1.51,6.41.89,1.65,2.05,2.85,3.48,3.6,1.42.75,3.09,1.13,4.99,1.13,2.57,0,4.64-.68,6.2-2.05,1.56-1.37,2.82-3.17,3.77-5.4l9.72,3.69c-.95,2.29-2.25,4.33-3.9,6.12-1.65,1.79-3.79,3.24-6.41,4.36-2.63,1.12-5.78,1.68-9.47,1.68ZM257.3,108.9c-.17-1.9-.64-3.51-1.42-4.82-.78-1.31-1.82-2.33-3.1-3.06-1.29-.73-2.79-1.09-4.53-1.09-2.51,0-4.61.78-6.28,2.35-1.68,1.56-2.71,3.77-3.1,6.62h18.44Z"/>
    <path class="cls-1" d="M296.43,136.3c-4.19,0-7.95-.92-11.27-2.77-3.32-1.84-5.92-4.44-7.79-7.79-1.87-3.35-2.81-7.23-2.81-11.65s.96-8.21,2.89-11.56c1.93-3.35,4.55-5.95,7.88-7.79,3.32-1.84,7.05-2.77,11.19-2.77,3.18,0,6.08.54,8.67,1.63s4.79,2.58,6.58,4.48c1.79,1.9,3.13,4.02,4.02,6.37l-10.06,3.69c-.78-2.35-2-4.18-3.65-5.49-1.65-1.31-3.62-1.97-5.91-1.97-2.01,0-3.81.5-5.4,1.51-1.59,1-2.85,2.51-3.77,4.52s-1.38,4.47-1.38,7.37.47,5.38,1.42,7.42c.95,2.04,2.22,3.56,3.81,4.57s3.39,1.51,5.4,1.51c2.57,0,4.66-.71,6.28-2.14,1.62-1.43,2.88-3.45,3.77-6.08l10.22,3.6c-1.56,4.08-4.11,7.32-7.63,9.72s-7.68,3.6-12.49,3.6Z"/>
    <path class="cls-1" d="M324.34,135.04v-58.66h10.89v9.55c0,3.97-.45,7.22-1.34,9.76-.89,2.54-2.12,4.93-3.69,7.17h4.94c.95-3.13,2.53-5.73,4.73-7.79,2.21-2.07,4.93-3.1,8.17-3.1s5.77.64,7.92,1.93c2.15,1.29,3.76,3.09,4.82,5.4,1.06,2.32,1.59,5.04,1.59,8.17v27.57h-10.81v-25.47c0-2.9-.64-5.06-1.93-6.45-1.29-1.4-3.07-2.09-5.36-2.09-2.68,0-4.69.81-6.03,2.43-1.34,1.62-2.18,3.45-2.51,5.49-.34,2.04-.5,4.29-.5,6.75v19.36h-10.89Z"/>
    <path class="cls-1" d="M413.49,119.94h1.19l-2.29,15.1h-41.2v-1.19c2.81-.16,4.77-.67,5.87-1.51,1.1-.85,1.66-2.43,1.66-4.75v-41.16c0-2.24-.56-3.78-1.68-4.64-1.12-.86-3.07-1.37-5.85-1.53v-1.19h22.63v1.19c-2.76.16-4.69.67-5.79,1.53-1.1.86-1.66,2.41-1.66,4.64v41.16c0,1.8.34,3.1,1.02,3.91.68.81,1.76,1.21,3.23,1.21h9.12c7.2,0,11.78-4.25,13.75-12.77Z"/>
    <path class="cls-1" d="M433.42,128.82c0,1.66.46,2.83,1.39,3.5.93.67,2.32,1.18,4.17,1.53v1.19h-18.13v-1.19c1.88-.35,3.29-.87,4.21-1.53.93-.67,1.39-1.83,1.39-3.5v-28.07c0-1.42-.34-2.48-1.02-3.17-.68-.7-1.79-1.11-3.31-1.25h-2.01v-1.19l12.15-3.44h1.15v37.11ZM429.41,86.11c-1.55,0-2.84-.48-3.85-1.43-1.01-.95-1.51-2.15-1.51-3.6s.5-2.65,1.51-3.6c1.01-.95,2.29-1.43,3.85-1.43,1.45,0,2.66.48,3.64,1.45.98.97,1.47,2.16,1.47,3.58s-.49,2.61-1.47,3.58c-.98.97-2.2,1.45-3.64,1.45Z"/>
    <path class="cls-1" d="M484.12,128.82c0,1.66.46,2.83,1.39,3.5.93.67,2.3,1.18,4.13,1.53v1.19h-18.13v-1.19c1.88-.35,3.29-.87,4.23-1.53.94-.67,1.41-1.83,1.41-3.5v-23.77c0-2.59-.69-4.64-2.07-6.14-1.38-1.5-3.27-2.25-5.67-2.25-2.13,0-4.12.53-5.97,1.58-1.86,1.05-3.86,2.82-6.01,5.3v25.29c0,1.66.46,2.83,1.39,3.5.93.67,2.32,1.18,4.17,1.53v1.19h-18.13v-1.19c1.88-.35,3.29-.87,4.21-1.53.93-.67,1.39-1.83,1.39-3.5v-28.07c0-1.42-.35-2.48-1.04-3.17s-1.79-1.08-3.29-1.17h-2.01v-1.19l12.15-3.44h1.15v9.74c2.51-3.25,4.92-5.68,7.24-7.3,2.32-1.62,4.88-2.43,7.69-2.43,3.71,0,6.59,1.12,8.65,3.38,2.06,2.25,3.09,5.41,3.09,9.47v24.18Z"/>
    <path class="cls-1" d="M519.26,129.11c8.7.66,13.05,4.15,13.05,10.47,0,4.01-2.05,7.21-6.16,9.62-4.11,2.4-9.45,3.6-16.02,3.6-5.46,0-9.84-.93-13.15-2.78-3.31-1.86-4.97-4.26-4.97-7.2,0-2.56.8-4.68,2.41-6.34,1.61-1.66,3.55-2.86,5.81-3.6-2.84-1.39-4.26-3.46-4.26-6.22,0-1.64.49-3.2,1.47-4.69.98-1.49,2.36-2.72,4.13-3.7-2.13-1.25-3.8-2.9-5.03-4.93-1.23-2.03-1.84-4.34-1.84-6.94,0-4.25,1.55-7.75,4.66-10.49s7.19-4.11,12.23-4.11c2.65,0,5.09.42,7.32,1.27h13.05v2.33h-8.8c3.57,2.76,5.36,6.42,5.36,11.01,0,4.2-1.57,7.65-4.71,10.35-3.14,2.7-7.21,4.05-12.23,4.05-3.41,0-6.4-.67-8.96-2.01-1.72,1.47-2.58,3.06-2.58,4.75,0,1.06.51,2.07,1.53,3.03,1.02.96,2.49,1.49,4.4,1.6l13.26.94ZM512.55,150.63c4.25,0,7.83-.78,10.74-2.35,2.9-1.57,4.36-3.58,4.36-6.03,0-1.88-.73-3.46-2.19-4.73-1.46-1.27-3.84-2.04-7.14-2.31l-12.48-.9c-1.45-.14-2.84-.4-4.17-.78-.71.66-1.25,1.2-1.64,1.64-.38.44-.8,1.13-1.27,2.09-.46.95-.7,1.95-.7,2.99,0,3.16,1.36,5.69,4.07,7.57,2.71,1.88,6.18,2.82,10.41,2.82ZM511.04,94.25c-2.65,0-4.8,1-6.46,3.01-1.66,2.01-2.5,4.6-2.5,7.79,0,3.93.95,7.13,2.84,9.6s4.33,3.7,7.3,3.7c2.67,0,4.83-.99,6.48-2.97s2.48-4.56,2.48-7.75c0-3.9-.94-7.11-2.82-9.62-1.88-2.51-4.32-3.76-7.32-3.76Z"/>
    <path class="cls-1" d="M557.19,136.23c-5.7,0-10.34-1.98-13.91-5.93-3.57-3.95-5.36-9.08-5.36-15.38,0-6.82,1.86-12.38,5.59-16.67,3.72-4.3,8.54-6.44,14.46-6.44s10.34,1.98,13.91,5.93c3.57,3.96,5.36,9.1,5.36,15.43,0,6.85-1.86,12.4-5.56,16.67-3.71,4.27-8.54,6.4-14.48,6.4ZM558.62,133.86c3.44,0,6.16-1.62,8.18-4.87,2.02-3.25,3.03-7.49,3.03-12.73,0-2.45-.25-4.92-.76-7.39-.5-2.47-1.25-4.83-2.25-7.08s-2.38-4.09-4.15-5.5c-1.77-1.42-3.79-2.13-6.06-2.13-3.41,0-6.14,1.62-8.18,4.85-2.05,3.23-3.07,7.43-3.07,12.58,0,1.96.14,3.94.43,5.93.29,1.99.77,3.98,1.45,5.95.68,1.98,1.52,3.72,2.52,5.24,1,1.51,2.26,2.75,3.78,3.7,1.53.96,3.22,1.43,5.07,1.43Z"/>
  </g>
  <g>
    <path class="cls-1" d="M151.18,44.44c4.41,0,8.01,3.61,8.01,8.01v7.95c0,4.41-3.61,8.01-8.01,8.01H47.33c-4.41,0-8.01-3.61-8.01-8.01v-7.95c0-4.41,3.61-8.01,8.01-8.01h103.85Z"/>
    <path class="cls-1" d="M144.21,82.51v80.91h-13.54v-68.97c0-1.55-.63-2.97-1.65-4-1.02-1.02-2.44-1.65-4-1.65-3.13,0-5.67,2.54-5.67,5.65v68.97h-15.32v-68.97c0-1.55-.63-2.97-1.65-4-1.02-1.02-2.44-1.65-4-1.65-3.13,0-5.67,2.54-5.67,5.65v68.97h-14.04v-68.97c0-1.55-.63-2.97-1.65-4-1.03-1.02-2.45-1.65-4.01-1.65-3.13,0-5.65,2.54-5.65,5.65v68.97h-13.05v-80.91c0-3.29,2.7-5.99,5.99-5.99h77.92c3.29,0,5.99,2.7,5.99,5.99Z"/>
  </g>
</svg>