<?xml version="1.0" encoding="UTF-8"?>
<svg
        xmlns="http://www.w3.org/2000/svg"
        viewBox="87 83 185 190"
>
  <style>
    .cls-2 { fill:#fff; stroke-width:0 }
  </style>
  <path class="cls-2" d="M257.58,87.14c6.69,0,12.16,5.47,12.16,12.16v12.06c0,6.69-5.47,12.16-12.16,12.16H99.96c-6.69,0-12.16-5.47-12.16-12.16v-12.06c0-6.69,5.47-12.16,12.16-12.16h157.62Z"/>
  <path class="cls-2" d="M247,144.93v122.81h-20.55v-104.69c0-2.36-.96-4.5-2.51-6.07-1.55-1.55-3.7-2.51-6.07-2.51-4.75,0-8.6,3.85-8.6,8.58v104.69h-23.25v-104.69c0-2.36-.96-4.5-2.51-6.07-1.55-1.55-3.7-2.51-6.07-2.51-4.75,0-8.6,3.85-8.6,8.58v104.69h-21.32v-104.69c0-2.36-.96-4.5-2.51-6.07-1.57-1.55-3.72-2.51-6.09-2.51-4.75,0-8.58,3.85-8.58,8.58v104.69h-19.8v-122.81c0-5,4.1-9.1,9.1-9.1h118.27c5,0,9.1,4.1,9.1,9.1Z"/>
</svg>
