<?xml version="1.0" encoding="UTF-8"?>
<svg id="Layer_1" data-name="Layer 1" xmlns="http://www.w3.org/2000/svg" viewBox="0 0 662.15 405.06">
  <defs>
    <style>
      .cls-1 {
        stroke-width: 0px;
      }
    </style>
  </defs>
  <g>
    <path class="cls-1" d="M82.99,318.46v-68.03h-28.24v-13.65h72.81v13.65h-28.47v68.03h-16.1Z"/>
    <path class="cls-1" d="M149.51,320.21c-5.76,0-10.81-1.22-15.17-3.68-4.36-2.45-7.74-6.01-10.15-10.68-2.41-4.67-3.62-10.19-3.62-16.57,0-5.99,1.24-11.32,3.73-15.99,2.49-4.67,5.91-8.3,10.27-10.91,4.36-2.61,9.26-3.91,14.7-3.91,6.22,0,11.49,1.52,15.81,4.55,4.32,3.03,7.49,7.18,9.51,12.43,2.02,5.25,2.76,11.11,2.22,17.56h-41.07c.15,3.66.85,6.63,2.1,8.93,1.24,2.3,2.86,3.97,4.84,5.02,1.98,1.05,4.3,1.58,6.94,1.58,3.58,0,6.46-.95,8.63-2.86,2.18-1.91,3.93-4.41,5.25-7.53l13.54,5.13c-1.32,3.19-3.13,6.03-5.43,8.52-2.3,2.49-5.27,4.51-8.93,6.07-3.66,1.55-8.05,2.33-13.19,2.33ZM161.88,282.05c-.23-2.64-.9-4.88-1.98-6.71-1.09-1.83-2.53-3.25-4.32-4.26-1.79-1.01-3.89-1.52-6.3-1.52-3.5,0-6.42,1.09-8.75,3.27-2.33,2.18-3.77,5.25-4.32,9.22h25.67Z"/>
    <path class="cls-1" d="M216.37,320.21c-5.83,0-11.07-1.28-15.69-3.85-4.63-2.57-8.25-6.18-10.85-10.85-2.61-4.67-3.91-10.07-3.91-16.22s1.34-11.44,4.03-16.1c2.68-4.67,6.34-8.29,10.97-10.85,4.63-2.57,9.82-3.85,15.58-3.85,4.43,0,8.46.76,12.08,2.28s6.67,3.6,9.16,6.24c2.49,2.65,4.36,5.6,5.6,8.87l-14,5.13c-1.09-3.27-2.78-5.81-5.08-7.64-2.3-1.83-5.04-2.74-8.23-2.74-2.8,0-5.31.7-7.53,2.1-2.22,1.4-3.97,3.5-5.25,6.3s-1.93,6.22-1.93,10.27.66,7.49,1.98,10.33c1.32,2.84,3.09,4.96,5.31,6.36s4.73,2.1,7.53,2.1c3.58,0,6.49-.99,8.75-2.98,2.26-1.98,4.01-4.8,5.25-8.46l14.24,5.02c-2.18,5.68-5.72,10.19-10.62,13.54s-10.7,5.02-17.39,5.02Z"/>
    <path class="cls-1" d="M255.22,318.46v-81.68h15.17v13.3c0,5.52-.62,10.05-1.87,13.59-1.25,3.54-2.96,6.87-5.13,9.98h6.88c1.32-4.36,3.52-7.97,6.59-10.85,3.07-2.88,6.86-4.32,11.38-4.32s8.03.9,11.03,2.68c2.99,1.79,5.23,4.3,6.71,7.53,1.48,3.23,2.22,7.02,2.22,11.38v38.39h-15.05v-35.47c0-4.04-.9-7.04-2.68-8.99-1.79-1.94-4.28-2.92-7.47-2.92-3.73,0-6.53,1.13-8.4,3.38-1.87,2.26-3.03,4.8-3.5,7.64-.47,2.84-.7,5.97-.7,9.39v26.96h-15.17Z"/>
    <path class="cls-1" d="M379.37,297.44h1.65l-3.19,21.02h-57.38v-1.65c3.91-.23,6.64-.93,8.18-2.11,1.54-1.18,2.31-3.38,2.31-6.61v-57.32c0-3.11-.78-5.27-2.34-6.47-1.56-1.2-4.27-1.91-8.15-2.14v-1.65h31.51v1.65c-3.84.23-6.52.94-8.06,2.14-1.54,1.2-2.31,3.35-2.31,6.47v57.32c0,2.51.47,4.32,1.42,5.44.95,1.12,2.45,1.68,4.5,1.68h12.71c10.03,0,16.41-5.92,19.14-17.78Z"/>
    <path class="cls-1" d="M407.12,309.8c0,2.32.65,3.94,1.94,4.87,1.29.93,3.23,1.64,5.81,2.14v1.65h-25.24v-1.65c2.62-.49,4.58-1.21,5.87-2.14,1.29-.93,1.94-2.55,1.94-4.87v-39.09c0-1.97-.48-3.45-1.42-4.42-.95-.97-2.49-1.55-4.61-1.74h-2.79v-1.65l16.92-4.79h1.6v51.68ZM401.54,250.32c-2.17,0-3.95-.66-5.36-1.99-1.41-1.33-2.11-3-2.11-5.01s.7-3.68,2.11-5.01c1.4-1.33,3.19-1.99,5.36-1.99,2.01,0,3.7.67,5.07,2.02,1.37,1.35,2.05,3.01,2.05,4.99s-.68,3.64-2.05,4.99c-1.37,1.35-3.06,2.02-5.07,2.02Z"/>
    <path class="cls-1" d="M477.71,309.8c0,2.32.65,3.94,1.94,4.87,1.29.93,3.21,1.64,5.75,2.14v1.65h-25.24v-1.65c2.62-.49,4.59-1.21,5.9-2.14,1.31-.93,1.97-2.55,1.97-4.87v-33.1c0-3.61-.96-6.46-2.88-8.55-1.92-2.09-4.55-3.13-7.89-3.13-2.96,0-5.74.73-8.32,2.19-2.58,1.46-5.38,3.92-8.38,7.38v35.21c0,2.32.65,3.94,1.94,4.87,1.29.93,3.23,1.64,5.81,2.14v1.65h-25.24v-1.65c2.62-.49,4.58-1.21,5.87-2.14,1.29-.93,1.94-2.55,1.94-4.87v-39.09c0-1.97-.48-3.45-1.45-4.42s-2.5-1.51-4.59-1.62h-2.79v-1.65l16.92-4.79h1.6v13.56c3.49-4.52,6.86-7.91,10.08-10.17,3.23-2.26,6.8-3.39,10.71-3.39,5.17,0,9.18,1.57,12.05,4.7,2.87,3.13,4.3,7.53,4.3,13.19v33.67Z"/>
    <path class="cls-1" d="M526.66,310.2c12.12.91,18.18,5.77,18.18,14.59,0,5.58-2.86,10.05-8.58,13.39-5.72,3.34-13.15,5.01-22.31,5.01-7.6,0-13.7-1.29-18.32-3.87-4.62-2.58-6.92-5.93-6.92-10.03,0-3.57,1.12-6.51,3.36-8.83,2.24-2.32,4.94-3.99,8.09-5.01-3.95-1.94-5.93-4.82-5.93-8.66,0-2.28.68-4.45,2.05-6.52,1.37-2.07,3.29-3.79,5.75-5.16-2.96-1.75-5.3-4.04-7.01-6.87-1.71-2.83-2.56-6.05-2.56-9.66,0-5.92,2.17-10.8,6.5-14.61s10.01-5.73,17.04-5.73c3.68,0,7.08.59,10.2,1.77h18.18v3.25h-12.25c4.98,3.84,7.46,8.95,7.46,15.33,0,5.85-2.18,10.66-6.55,14.42-4.37,3.76-10.05,5.64-17.04,5.64-4.75,0-8.91-.93-12.48-2.79-2.39,2.05-3.59,4.25-3.59,6.61,0,1.48.71,2.89,2.14,4.22,1.42,1.33,3.47,2.07,6.12,2.22l18.46,1.31ZM517.31,340.17c5.92,0,10.91-1.09,14.96-3.28,4.04-2.18,6.07-4.99,6.07-8.4,0-2.62-1.02-4.82-3.05-6.58-2.03-1.77-5.35-2.84-9.94-3.22l-17.38-1.25c-2.01-.19-3.95-.55-5.81-1.08-.99.91-1.75,1.67-2.28,2.28-.53.61-1.12,1.58-1.77,2.91-.65,1.33-.97,2.71-.97,4.16,0,4.41,1.89,7.92,5.67,10.54,3.78,2.62,8.61,3.93,14.5,3.93ZM515.21,261.66c-3.68,0-6.69,1.4-9,4.19-2.32,2.79-3.48,6.41-3.48,10.85,0,5.47,1.32,9.92,3.96,13.36s6.03,5.16,10.17,5.16c3.72,0,6.73-1.38,9.03-4.13s3.45-6.35,3.45-10.8c0-5.43-1.31-9.89-3.93-13.39-2.62-3.49-6.02-5.24-10.2-5.24Z"/>
    <path class="cls-1" d="M579.47,320.11c-7.94,0-14.4-2.75-19.37-8.26-4.98-5.51-7.46-12.65-7.46-21.42,0-9.5,2.59-17.24,7.78-23.22s11.9-8.97,20.14-8.97,14.4,2.75,19.37,8.26c4.98,5.51,7.46,12.67,7.46,21.48,0,9.54-2.58,17.27-7.75,23.22-5.17,5.95-11.89,8.92-20.17,8.92ZM581.47,316.81c4.79,0,8.58-2.26,11.4-6.78,2.81-4.52,4.22-10.43,4.22-17.72,0-3.42-.35-6.85-1.05-10.28-.7-3.44-1.75-6.72-3.13-9.86s-3.31-5.69-5.78-7.66c-2.47-1.97-5.28-2.96-8.43-2.96-4.75,0-8.55,2.25-11.39,6.75-2.85,4.5-4.27,10.34-4.27,17.52,0,2.73.2,5.49.6,8.26.4,2.77,1.07,5.54,2.02,8.29.95,2.75,2.12,5.18,3.5,7.29,1.39,2.11,3.14,3.83,5.27,5.16,2.13,1.33,4.48,1.99,7.06,1.99Z"/>
  </g>
  <g>
    <path class="cls-1" d="M385.01,64.59c4.58,0,8.32,3.75,8.32,8.32v8.26c0,4.58-3.75,8.32-8.32,8.32h-107.87c-4.58,0-8.32-3.75-8.32-8.32v-8.26c0-4.58,3.75-8.32,8.32-8.32h107.87Z"/>
    <path class="cls-1" d="M377.77,104.14v84.04h-14.06v-71.64c0-1.61-.66-3.08-1.72-4.15-1.06-1.06-2.53-1.72-4.15-1.72-3.25,0-5.88,2.63-5.88,5.87v71.64h-15.91v-71.64c0-1.61-.66-3.08-1.72-4.15-1.06-1.06-2.53-1.72-4.15-1.72-3.25,0-5.88,2.63-5.88,5.87v71.64h-14.59v-71.64c0-1.61-.66-3.08-1.72-4.15-1.07-1.06-2.54-1.72-4.17-1.72-3.25,0-5.87,2.63-5.87,5.87v71.64h-13.55v-84.04c0-3.42,2.8-6.23,6.23-6.23h80.93c3.42,0,6.23,2.8,6.23,6.23Z"/>
  </g>
</svg>